PathFileType	4	(X/Y/Z)	./resultDataOpenSim/trcMotMarkerGrf/sub06/qtm-04-01.trc
DataRate	CameraRate	NumFrames	NumMarkers	Units	OrigDataRate	OrigDataStartFrame	OrigNumFrames
250.000000	250.000000	13	24	m	250.000000	385	513
Frame#	Time	L.Toe.Tip			R.Toe.Tip			L.Ankle.Lat			R.Ankle.Lat			L.Ankle.Med			R.Ankle.Med			L.Heel			R.Heel			L.Knee.Lat			R.Knee.Lat			L.Knee.Med			R.Knee.Med			L.Thigh.Upper			R.Thigh.Upper			L.ASIS			R.ASIS			V.Sacral			L.Acromium			R.Acromium			C7			L.Elbow			R.Elbow			L.Wrist.Lat			R.Wrist.Lat
		X1	Y1	Z1	X2	Y2	Z2	X3	Y3	Z3	X4	Y4	Z4	X5	Y5	Z5	X6	Y6	Z6	X7	Y7	Z7	X8	Y8	Z8	X9	Y9	Z9	X10	Y10	Z10	X11	Y11	Z11	X12	Y12	Z12	X13	Y13	Z13	X14	Y14	Z14	X15	Y15	Z15	X16	Y16	Z16	X17	Y17	Z17	X18	Y18	Z18	X19	Y19	Z19	X20	Y20	Z20	X21	Y21	Z21	X22	Y22	Z22	X23	Y23	Z23	X24	Y24	Z24

385	1.536	1.5443297	0.11927178	-0.036690692	0.88878475	0.035819574	0.13604796	1.4174273	0.10121933	-0.04755519	0.76718312	0.095548595	0.15349033	1.4207875	0.12012233	0.034928613	0.79809774	0.11243434	0.068805486	1.3660252	0.045877375	0.0045391881	0.71246273	0.093099194	0.090833532	1.324716	0.46169493	-0.05714678	0.96371077	0.43725426	0.18608968	1.3177893	0.45214188	0.065353307	0.9449568	0.43705267	0.054377784	1.1350967	0.80458487	-0.10414946	1.0649448	0.78603493	0.23789167	1.1945799	0.84687193	-0.048338096	1.1783738	0.83495187	0.199029	1.0001266	0.91437976	0.067369669	1.1015568	1.3265136	-0.1095511	1.1386821	1.3149123	0.24996035	1.0450887	1.3575714	0.078909688	0.97740171	1.0417839	-0.16007383	1.1448562	1.0014981	0.35058807	1.0334141	0.81512949	-0.23413545	1.3841822	0.94174465	0.30095992
386	1.54	1.5555814	0.12105329	-0.036434797	0.88892396	0.035727668	0.136137	1.4289501	0.10118601	-0.046851481	0.76797508	0.096777377	0.15375228	1.431667	0.1200192	0.035645302	0.79897981	0.11335871	0.069136931	1.3783568	0.045063709	0.0054577514	0.71328684	0.094977793	0.091402721	1.3312062	0.45976381	-0.056535459	0.96852474	0.4364554	0.18609067	1.3236428	0.45016245	0.066296589	0.94977477	0.43625508	0.054389878	1.1425193	0.80280107	-0.10445628	1.0708073	0.78451495	0.23752563	1.2018558	0.845082	-0.048443217	1.1849243	0.83310101	0.19886041	1.0068729	0.91269171	0.066664592	1.108039	1.3247563	-0.11015273	1.1446609	1.3133279	0.24951295	1.0512749	1.3559169	0.078239358	0.98263201	1.0405474	-0.15934467	1.1521616	1.0000363	0.35068857	1.0377569	0.81357261	-0.23491953	1.3913128	0.94137538	0.30009247
387	1.544	1.5661777	0.12235503	-0.036183571	0.88909228	0.03557466	0.1361716	1.4397987	0.10100975	-0.04613599	0.76874553	0.098135261	0.15404722	1.4422033	0.11977493	0.036444089	0.7999498	0.11435281	0.069516663	1.3898991	0.044310429	0.0062201515	0.71420689	0.09695629	0.091997158	1.3378712	0.45797014	-0.05590932	0.97342585	0.4355943	0.18614941	1.3296265	0.44831908	0.067233015	0.95469875	0.43540757	0.054462299	1.1499886	0.80101234	-0.10477746	1.0768663	0.782994	0.23715564	1.2091716	0.84332388	-0.04855643	1.1915026	0.83129388	0.1986965	1.0136304	0.91102448	0.065951818	1.1145621	1.3230141	-0.11079119	1.1506995	1.3117623	0.24902296	1.0574902	1.3542736	0.077536541	0.98801327	1.0392626	-0.1586433	1.1592625	0.99851563	0.35062054	1.0422488	0.81201711	-0.23568247	1.398354	0.94092192	0.29925145
388	1.548	1.5761454	0.12318802	-0.035951689	0.88928412	0.035385453	0.13611953	1.4499822	0.10065333	-0.045390486	0.76967459	0.099531403	0.15445947	1.4525992	0.11942588	0.037316921	0.80105567	0.11538373	0.069981619	1.4006663	0.043528724	0.0069775969	0.71521609	0.099043383	0.092632342	1.3446956	0.45633778	-0.055292678	0.97840314	0.43467268	0.18625729	1.3357183	0.44661591	0.068126559	0.95976076	0.43452039	0.054566699	1.157502	0.79923505	-0.10510125	1.0831117	0.78147068	0.23676018	1.2165209	0.84159223	-0.048684495	1.1981399	0.82953874	0.19852771	1.0204177	0.90938166	0.065245782	1.1211189	1.3212926	-0.11146219	1.1567861	1.3102116	0.24850794	1.0637479	1.3526338	0.076810019	0.99371215	1.0378954	-0.15808726	1.166218	0.99697627	0.35043532	1.046901	0.81046123	-0.23643371	1.4053069	0.9403863	0.29845249
389	1.552	1.5855168	0.12356564	-0.035709559	0.88948769	0.035201642	0.13599438	1.4595127	0.10008887	-0.04460465	0.77080201	0.10094135	0.1550034	1.4626554	0.11897753	0.038219376	0.80228531	0.1164558	0.070526521	1.4106635	0.042635512	0.00781664	0.71633025	0.10124008	0.093300697	1.3516642	0.45486193	-0.054692561	0.98345953	0.43370122	0.18640163	1.3419149	0.44506266	0.068943217	0.96498221	0.4336022	0.054689853	1.1650489	0.79749393	-0.10541552	1.0895214	0.77995142	0.23634293	1.2238988	0.83988389	-0.04882548	1.2048634	0.8278338	0.19834328	1.0272608	0.9077585	0.06455632	1.1277025	1.3195955	-0.11215949	1.1629086	1.3086694	0.24797718	1.0700609	1.3510019	0.076064032	0.99985768	1.03642	-0.15777439	1.1731449	0.99549611	0.35022994	1.0517203	0.80890576	-0.23717684	1.4121677	0.93976204	0.29769979
390	1.556	1.5943268	0.12350763	-0.035406068	0.88969098	0.035068472	0.13587611	1.4684006	0.099295073	-0.043771747	0.77205953	0.1023784	0.15564618	1.4718932	0.11838686	0.039092049	0.80358634	0.11760737	0.071109036	1.4198953	0.04157338	0.0087584843	0.71757501	0.10354476	0.093987231	1.3587595	0.45351498	-0.054113478	0.98860731	0.43269564	0.18658601	1.3482459	0.44367609	0.06965374	0.97036682	0.43265674	0.054835139	1.1726152	0.795808	-0.10571351	1.0960738	0.77844634	0.23590446	1.2313003	0.83820156	-0.048973224	1.2116609	0.8261776	0.19815692	1.0341664	0.90615093	0.063891619	1.134311	1.3179252	-0.11287964	1.1690605	1.3071359	0.24742586	1.0764277	1.3493906	0.07529582	1.0064648	1.0348402	-0.1577498	1.1801668	0.99415761	0.35010329	1.0567054	0.80735641	-0.23790703	1.418933	0.93904468	0.29699082
391	1.56	1.6025809	0.12302374	-0.034983921	0.88989365	0.035001544	0.13585022	1.4766527	0.098255884	-0.042888209	0.77337458	0.10385328	0.1563506	1.480112	0.11756235	0.039938091	0.80494183	0.11885915	0.07169706	1.4283723	0.040307019	0.0098177885	0.71894713	0.10596966	0.094703527	1.3659488	0.45226164	-0.053568167	0.99387628	0.43167367	0.186817	1.3547437	0.44247268	0.070240148	0.9759128	0.43168264	0.055007906	1.1801866	0.79418501	-0.10599611	1.1026483	0.77697988	0.23545573	1.2387222	0.83655102	-0.049123222	1.2184783	0.82457508	0.19802768	1.0411086	0.90456615	0.063260101	1.1409465	1.3162818	-0.11362376	1.175228	1.305621	0.24684507	1.0828357	1.3478046	0.074503494	1.0133777	1.0332086	-0.15798486	1.187292	0.9929671	0.35007349	1.0618506	0.80581755	-0.23861589	1.4256059	0.93823847	0.29632072
392	1.564	1.6102339	0.12209457	-0.03438848	0.89010868	0.034980314	0.13594078	1.4842691	0.096958361	-0.041958739	0.77473442	0.10537949	0.157085	1.4875211	0.1164141	0.040816192	0.80640719	0.1201854	0.072297444	1.4361148	0.038806417	0.01103172	0.72039996	0.1085419	0.095494041	1.3731877	0.45106875	-0.053069688	0.99931381	0.43064793	0.18708459	1.3614122	0.44145438	0.070700486	0.98162024	0.43067341	0.055210207	1.1877539	0.79262795	-0.10626651	1.1088933	0.77560628	0.23503716	1.2461722	0.83493871	-0.049276063	1.2252545	0.8230296	0.19803632	1.048062	0.90302014	0.062658888	1.1476138	1.3146644	-0.11439553	1.1813892	1.304137	0.24622701	1.0892774	1.3462365	0.073687076	1.0203556	1.0316107	-0.15842211	1.1943599	0.99181896	0.35003887	1.0671526	0.80428995	-0.23929694	1.4321944	0.93734941	0.29568878
393	1.568	1.6172377	0.12068869	-0.033582987	0.89035056	0.034976171	0.13611713	1.4912419	0.09539148	-0.041000816	0.77619418	0.1069897	0.15782477	1.4943391	0.11491095	0.04175408	0.80805543	0.12154757	0.072942144	1.4431427	0.037050647	0.012390681	0.72191194	0.11126933	0.096378743	1.3804384	0.44990723	-0.052624379	1.0049787	0.42963064	0.18736067	1.3681901	0.44058961	0.071042239	0.98749257	0.42961719	0.055445373	1.1953218	0.79114249	-0.10652496	1.1143058	0.77439572	0.2347004	1.2536684	0.83337169	-0.049433885	1.2319897	0.82153745	0.19819377	1.0550688	0.90151738	0.062041391	1.1543189	1.3130748	-0.11519736	1.1875416	1.3026887	0.2455672	1.0957583	1.3446791	0.072838506	1.0272791	1.0301097	-0.15906189	1.2011911	0.99059728	0.34987891	1.0726138	0.80277585	-0.23995022	1.438702	0.93637789	0.29509983
394	1.572	1.6235975	0.11879323	-0.032562392	0.89062431	0.034974609	0.13633181	1.4975682	0.093547313	-0.040040936	0.77783046	0.1087203	0.15856339	1.5005387	0.11305854	0.042723785	0.80987702	0.12295754	0.073655092	1.4494537	0.035048737	0.013758652	0.72355657	0.11412039	0.097304217	1.3876806	0.44875266	-0.052233603	1.0109275	0.42864111	0.18761524	1.3748902	0.43980335	0.071275501	0.99354374	0.42850055	0.05572607	1.202909	0.78973442	-0.10676808	1.1187679	0.7733565	0.23445312	1.2612264	0.83185513	-0.049592038	1.2387752	0.82009617	0.19838046	1.0622918	0.90003013	0.061284146	1.1610662	1.3115175	-0.11602793	1.1937211	1.3012727	0.24486515	1.1022871	1.3431351	0.071940968	1.0342289	1.0287087	-0.15996882	1.2077546	0.98928886	0.34957085	1.0782396	0.80127943	-0.24058164	1.4451238	0.93532138	0.29455815
395	1.576	1.6293502	0.11641765	-0.031348276	0.89092543	0.034972372	0.13654256	1.5032742	0.091420486	-0.03910202	0.77967926	0.11057917	0.15931481	1.5059502	0.11085011	0.04368239	0.81177809	0.12447742	0.074440682	1.455012	0.032854482	0.01493488	0.72543095	0.1170673	0.098204994	1.3949087	0.44759423	-0.051892439	1.0171739	0.4276826	0.1878482	1.3812303	0.43899617	0.07141583	0.99980153	0.42731557	0.056078447	1.2105336	0.78840006	-0.10699287	1.1230057	0.77237429	0.23423321	1.268849	0.8303895	-0.049739285	1.245689	0.81871727	0.19845351	1.0699722	0.89850368	0.060215118	1.1678573	1.3099959	-0.11688457	1.1999705	1.2998857	0.24411879	1.1088624	1.3416073	0.07098613	1.0413439	1.0273708	-0.16117853	1.2141379	0.98796104	0.34917207	1.0840358	0.79980131	-0.2411979	1.4514521	0.93417954	0.29406245
396	1.58	1.6345168	0.11358548	-0.029960935	0.89124835	0.034965996	0.13672844	1.5084216	0.089006219	-0.038193439	0.78171993	0.11253904	0.16009678	1.5104918	0.10828487	0.044600833	0.81372032	0.12613713	0.075290149	1.4597374	0.030602913	0.015763409	0.72755514	0.12012319	0.09907831	1.4021229	0.44644337	-0.051583308	1.0236555	0.42670969	0.18811108	1.3871336	0.43810411	0.071488043	1.0062898	0.42606365	0.05652745	1.2182031	0.7871251	-0.10720209	1.128032	0.77130254	0.2339693	1.2765326	0.82897239	-0.049870518	1.2526834	0.81742784	0.1984009	1.0781919	0.89690593	0.058775118	1.1746957	1.3085107	-0.11776821	1.206299	1.2985333	0.24332225	1.1154735	1.3400891	0.069982889	1.0486743	1.0260552	-0.16263243	1.220425	0.98667534	0.34873585	1.0900084	0.79833897	-0.24180413	1.4576793	0.93295679	0.29360879
397	1.584	1.639115	0.11030901	-0.028380755	0.89159219	0.034947543	0.13689666	1.513084	0.086307087	-0.037317256	0.78391526	0.11456519	0.16091649	1.5143316	0.10542114	0.045471016	0.8158015	0.12789267	0.076174594	1.4635059	0.028565408	0.01611778	0.72990782	0.12331415	0.099950632	1.4093183	0.44532493	-0.051277783	1.0302879	0.42565582	0.18847133	1.393004	0.43714918	0.07151829	1.0130098	0.42474836	0.057072955	1.2259228	0.78589267	-0.1074002	1.1341731	0.7701013	0.23364671	1.2842762	0.8276013	-0.049993813	1.2596753	0.81624075	0.19831249	1.0866543	0.89527669	0.0571801	1.1815879	1.3070615	-0.1186838	1.2126901	1.2972239	0.24246809	1.1221119	1.3385731	0.068941781	1.0561699	1.024731	-0.16419599	1.2266432	0.98545293	0.34827952	1.096162	0.7968936	-0.24240437	1.4637987	0.93166197	0.2931942
